<?xml version="1.0" encoding="UTF-8"?>
<svg width="246px" height="246px" viewBox="0 0 246 246" version="1.1" xmlns="http://www.w3.org/2000/svg" xmlns:xlink="http://www.w3.org/1999/xlink">
    <!-- Generator: Sketch 52.1 (67048) - http://www.bohemiancoding.com/sketch -->
    <title>Shape</title>
    <desc>Created with Sketch.</desc>
    <defs>
        <linearGradient x1="50.0000507%" y1="2.64860785%" x2="50.0000507%" y2="99.9998793%" id="linearGradient-1">
            <stop stop-color="#2BD094" offset="0%"></stop>
            <stop stop-color="#3a84ca" offset="100%"></stop>
        </linearGradient>
    </defs>
    <g id="Page-1" stroke="none" stroke-width="1" fill="none" fill-rule="evenodd">
        <g id="Desktop-HD" transform="translate(-138.000000, -899.000000)" fill="url(#linearGradient-1)" fill-rule="nonzero">
            <g id="contact-info" transform="translate(138.000000, 897.000000)">
                <g id="address" transform="translate(0.000000, 2.000000)">
                    <path d="M98.2558594,220.884866 L98.2558594,245.860775 L92.2312319,240.982241 C91.3003237,240.22779 69.1518401,222.201863 46.6918032,196.352974 C15.7090757,160.694337 0,128.685665 0,101.21875 L0,98.4963289 C0,44.1852513 44.0773772,0 98.2558594,0 C152.434342,0 196.511719,44.1852513 196.511719,98.4963289 L196.511719,101.21875 C196.511719,103.525376 196.389725,105.86775 196.168259,108.238344 L176.953262,90.6658409 C173.017547,50.6140788 139.227082,19.2187501 98.2558594,19.2187501 C54.6495669,19.2187501 19.1718293,54.7833152 19.1718293,98.4963289 L19.1718293,101.21875 C19.1718293,147.633489 78.828781,203.822229 98.2558594,220.884866 Z M157.209,207.080855 L185.965805,207.080855 L185.965805,178.253671 L157.209,178.253671 L157.209,207.080855 Z M98.2558594,57.6562499 C120.71965,57.6562499 138.996231,75.9775607 138.996231,98.4963289 C138.996231,121.015097 120.71965,139.336408 98.2558594,139.336408 C75.7920686,139.336408 57.5154876,121.015097 57.5154876,98.4963289 C57.5154876,75.9775607 75.7920686,57.6562499 98.2558594,57.6562499 Z M98.2558594,76.875 C86.3623811,76.875 76.6873169,86.5737428 76.6873169,98.4963289 C76.6873169,110.417034 86.3623811,120.117658 98.2558594,120.117658 C110.147461,120.117658 119.824402,110.417034 119.824402,98.4963289 C119.824402,86.5737428 110.147461,76.875 98.2558594,76.875 Z M233.079895,194.021889 L227.689636,189.092557 L227.689636,219.946035 C227.689636,234.312592 216.028885,246 201.697403,246 L140.99881,246 C126.667328,246 115.006576,234.312592 115.006576,219.946035 L115.006576,189.092557 L109.616318,194.021889 L96.6962126,179.824661 L171.347168,111.553414 L246,179.824661 L233.079895,194.021889 Z M208.517807,171.559563 L171.347168,137.567869 L134.178406,171.559563 L134.178406,219.944154 C134.178406,223.714528 137.23764,226.78125 140.99881,226.78125 L201.697403,226.78125 C205.458573,226.78125 208.517807,223.714528 208.517807,219.944154 L208.517807,171.559563 Z" id="Shape"></path>
                </g>
            </g>
        </g>
    </g>
</svg>