<?xml version="1.0" encoding="UTF-8"?>
<svg width="244px" height="248px" viewBox="0 0 244 248" version="1.1" xmlns="http://www.w3.org/2000/svg" xmlns:xlink="http://www.w3.org/1999/xlink">
    <!-- Generator: Sketch 52.1 (67048) - http://www.bohemiancoding.com/sketch -->
    <title>Shape</title>
    <desc>Created with Sketch.</desc>
    <defs>
        <linearGradient x1="50%" y1="100%" x2="50%" y2="0%" id="linearGradient-1">
            <stop stop-color="#3a84ca" offset="0%"></stop>
            <stop stop-color="#2BD094" offset="100%"></stop>
        </linearGradient>
    </defs>
    <g id="Page-1" stroke="none" stroke-width="1" fill="none" fill-rule="evenodd">
        <g id="Desktop-HD" transform="translate(-1074.000000, -897.000000)" fill="url(#linearGradient-1)" fill-rule="nonzero">
            <g id="contact-info" transform="translate(138.000000, 897.000000)">
                <g id="facebook" transform="translate(936.000000, 0.000000)">
                    <path d="M215.40625,0 L28.59375,0 C12.8262327,0 0,13.0364988 0,29.0625 L0,218.9375 C0,234.963501 12.8262327,248 28.59375,248 L215.40625,248 C231.173767,248 244,234.963501 244,218.9375 L244,29.0625 C244,13.0364988 231.173767,0 215.40625,0 Z M224.9375,218.9375 C224.9375,224.27887 220.661469,228.625 215.40625,228.625 L159.171875,228.625 L159.171875,157.90625 L189.684906,157.90625 L193.240509,127.875 L159.171875,127.875 L159.171875,95.421875 C159.171875,87.1383059 165.318787,80.890625 173.46875,80.890625 L194.914063,80.890625 L194.914063,52.796875 C189.269775,51.9870605 178.381439,50.859375 173.46875,50.859375 C162.353302,50.859375 151.211792,55.6255494 142.901733,63.9337161 C134.340362,72.49353 129.625,83.7060547 129.625,95.5070189 L129.625,127.875 L98.6484375,127.875 L98.6484375,157.90625 L129.625,157.90625 L129.625,228.625 L28.59375,228.625 C23.3385314,228.625 19.0625,224.27887 19.0625,218.9375 L19.0625,29.0625 C19.0625,23.7211302 23.3385314,19.375 28.59375,19.375 L215.40625,19.375 C220.661469,19.375 224.9375,23.7211302 224.9375,29.0625 L224.9375,218.9375 Z" id="Shape"></path>
                </g>
            </g>
        </g>
    </g>
</svg>