<?xml version="1.0" encoding="UTF-8"?>
<svg width="246px" height="246px" viewBox="0 0 246 246" version="1.1" xmlns="http://www.w3.org/2000/svg" xmlns:xlink="http://www.w3.org/1999/xlink">
    <!-- Generator: Sketch 52.1 (67048) - http://www.bohemiancoding.com/sketch -->
    <title>Shape</title>
    <desc>Created with Sketch.</desc>
    <defs>
        <linearGradient x1="49.9999412%" y1="0.000187080212%" x2="49.9999412%" y2="100.000027%" id="linearGradient-1">
            <stop stop-color="#2BD094" offset="0%"></stop>
            <stop stop-color="#3a84ca" offset="100%"></stop>
        </linearGradient>
    </defs>
    <g id="Page-1" stroke="none" stroke-width="1" fill="none" fill-rule="evenodd">
        <g id="Desktop-HD" transform="translate(-585.000000, -899.000000)" fill="url(#linearGradient-1)" fill-rule="nonzero">
            <g id="contact-info" transform="translate(138.000000, 897.000000)">
                <g id="telephone" transform="translate(447.000000, 2.000000)">
                    <path d="M185.086194,246 C179.112048,246 173.098984,244.677884 167.49672,241.956278 C143.853342,230.469107 108.169422,209.274888 72.4422589,173.53884 C36.7146157,137.80135 15.5259516,102.108556 4.0427527,78.4589795 C-3.48234611,62.9607671 -0.307409773,44.3141799 11.9440584,32.0594999 L44.2084841,0 L109.698273,65.8996026 L83.7630594,92.1765892 C88.1804875,99.9713519 97.7225934,114.869302 113.803877,130.954801 C129.882277,147.037897 144.668697,156.475331 152.387905,160.824231 L179.183638,134.871646 L246,201.817022 L213.884039,234.05242 C206.062491,241.876499 195.635362,246 185.086194,246 Z M207.095499,227.261139 L207.100303,227.261139 L207.095499,227.261139 Z M44.1229607,27.1603193 L25.5004792,45.6641699 C19.0549933,52.1113455 17.3647048,61.9274888 21.3165589,70.0663572 C32.1564104,92.3904538 52.1808991,126.106563 86.0217422,159.956278 C119.861144,193.805031 153.568897,213.834769 175.888104,224.677943 C184.020515,228.628911 193.829281,226.941063 200.29831,220.478027 L218.877549,201.829037 L178.955415,161.830596 L156.149013,183.919682 L150.241652,181.322549 C149.276871,180.898665 126.314798,170.635088 100.224393,144.537844 C74.1508051,118.457901 63.6727465,95.2946865 63.2388834,94.321002 L60.5722828,88.3318329 L82.6661497,65.9462203 L44.1229607,27.1603193 Z" id="Shape"></path>
                </g>
            </g>
        </g>
    </g>
</svg>