<?xml version="1.0" encoding="UTF-8"?>
<svg width="622px" height="1210px" viewBox="0 0 622 1210" version="1.1" xmlns="http://www.w3.org/2000/svg" xmlns:xlink="http://www.w3.org/1999/xlink">
    <!-- Generator: Sketch 52.1 (67048) - http://www.bohemiancoding.com/sketch -->
    <title>Time_line_vertical-02</title>
    <desc>Created with Sketch.</desc>
    <g id="Welcome" stroke="none" stroke-width="1" fill="none" fill-rule="evenodd">
        <g id="Tablet-Portrait-Design" transform="translate(-61.000000, -1546.000000)">
            <g id="Time_line_vertical-02" transform="translate(61.000000, 1547.000000)">
                <path d="M296,0 L296,1206" id="Shape" stroke="#A5A1A0"></path>
                <g id="Group" transform="translate(246.000000, 1109.000000)">
                    <g transform="translate(98.889922, 33.134694)">
                        <path d="M0.207751938,16.3653061 L152.489922,16.3653061" id="Shape" stroke="#00D093" stroke-width="2"></path>
                        <g transform="translate(135.869767, 0.000000)" fill-rule="nonzero">
                            <ellipse id="Oval" fill="#FFFFFF" transform="translate(16.195531, 16.340020) rotate(-31.714476) translate(-16.195531, -16.340020) " cx="16.1955309" cy="16.3400202" rx="11.6344051" ry="11.5974385"></ellipse>
                            <path d="M15.9968992,29.6191837 C8.7255814,29.6191837 2.70077519,23.6135204 2.70077519,16.3653061 C2.70077519,9.11709184 8.7255814,3.11142857 15.9968992,3.11142857 C23.2682171,3.11142857 29.2930233,9.11709184 29.2930233,16.3653061 C29.2930233,23.6135204 23.2682171,29.6191837 15.9968992,29.6191837 C8.7255814,29.6191837 23.2682171,29.6191837 15.9968992,29.6191837 Z M15.9968992,6.21780612 C10.3875969,6.21780612 5.81705426,10.7738265 5.81705426,16.3653061 C5.81705426,21.9567857 10.3875969,26.5128061 15.9968992,26.5128061 C21.6062016,26.5128061 26.1767442,21.9567857 26.1767442,16.3653061 C26.1767442,10.7738265 21.6062016,6.21780612 15.9968992,6.21780612 C10.3875969,6.21780612 21.6062016,6.21780612 15.9968992,6.21780612 Z" id="Shape" fill="#00D093"></path>
                        </g>
                    </g>
                    <g id="Oval">
                        <ellipse fill="#00D093" fill-rule="nonzero" cx="49.2372093" cy="49.5" rx="16.2046512" ry="16.1531633"></ellipse>
                        <ellipse stroke="#00D093" stroke-width="2" cx="49.2372093" cy="49.5" rx="35.7333333" ry="35.6197959"></ellipse>
                        <ellipse stroke="#A5A1A0" stroke-width="2" cx="49.2372093" cy="49.5" rx="49.2372093" ry="49.0807653"></ellipse>
                    </g>
                </g>
                <g id="Group" transform="translate(246.000000, 0.000000)">
                    <g transform="translate(99.959172, 35.147679)" id="Shape">
                        <path d="M152.854234,13.8523207 L0.208248276,13.8523207" stroke="#00D093" stroke-width="2"></path>
                        <g transform="translate(138.689459, 0.000000)" fill-rule="nonzero">
                            <path d="M13.3317821,2.2742616 C19.7874787,2.2742616 24.9936856,7.44303797 24.9936856,13.8523207 C24.9936856,20.2616034 19.7874787,25.4303797 13.3317821,25.4303797 C6.87608558,25.4303797 1.6698787,20.2616034 1.6698787,13.8523207 C1.6698787,7.44303797 6.87608558,2.2742616 13.3317821,2.2742616 Z" fill="#FFFFFF"></path>
                            <path d="M13.3317821,0.620253165 C6.04309248,0.620253165 0.00389249113,6.61603376 0.00389249113,13.8523207 C0.00389249113,21.0886076 6.04309248,27.0843882 13.3317821,27.0843882 C20.6204718,27.0843882 26.6596718,21.0886076 26.6596718,13.8523207 C26.6596718,6.61603376 20.82872,0.620253165 13.3317821,0.620253165 C6.04309248,0.620253165 20.82872,0.620253165 13.3317821,0.620253165 Z M13.3317821,23.9831224 C7.70907869,23.9831224 3.12761662,19.4345992 3.12761662,13.8523207 C3.12761662,8.27004219 7.70907869,3.72151899 13.3317821,3.72151899 C18.9544856,3.72151899 23.5359476,8.27004219 23.5359476,13.8523207 C23.5359476,19.4345992 18.9544856,23.9831224 13.3317821,23.9831224 C7.70907869,23.9831224 18.9544856,23.9831224 13.3317821,23.9831224 Z" fill="#00D093"></path>
                        </g>
                    </g>
                    <g id="Oval">
                        <ellipse fill="#00D093" fill-rule="nonzero" cx="49.5630896" cy="49" rx="16.2433655" ry="16.1265823"></ellipse>
                        <ellipse stroke="#00D093" stroke-width="2" cx="49.5630896" cy="49" rx="35.8187034" ry="35.5611814"></ellipse>
                        <ellipse stroke="#A5A1A0" stroke-width="2" cx="49.5630896" cy="49" rx="49.3548413" ry="49"></ellipse>
                    </g>
                </g>
                <g id="Group" transform="translate(81.000000, 559.000000)">
                    <g transform="translate(0.000000, 33.968112)">
                        <path d="M167.243819,15.7389796 L15.3358645,15.7389796" id="Shape" stroke="#00D093" stroke-width="2"></path>
                        <g fill-rule="nonzero">
                            <ellipse id="Oval" fill="#FFFFFF" transform="translate(15.977795, 15.789614) rotate(-22.500428) translate(-15.977795, -15.789614) " cx="15.9777948" cy="15.7896135" rx="11.6058121" ry="11.5974357"></ellipse>
                            <path d="M15.9575887,2.48510204 C23.2110381,2.48510204 29.2210391,8.49076531 29.2210391,15.7389796 C29.2210391,22.9871939 23.2110381,28.9928571 15.9575887,28.9928571 C8.7041393,28.9928571 2.69413836,22.9871939 2.69413836,15.7389796 C2.69413836,8.49076531 8.7041393,2.48510204 15.9575887,2.48510204 C23.2110381,2.48510204 8.7041393,2.48510204 15.9575887,2.48510204 Z M15.9575887,25.8864796 C21.5531068,25.8864796 26.1124179,21.3304592 26.1124179,15.7389796 C26.1124179,10.1475 21.5531068,5.59147959 15.9575887,5.59147959 C10.3620706,5.59147959 5.80275954,10.1475 5.80275954,15.7389796 C5.80275954,21.3304592 10.3620706,25.8864796 15.9575887,25.8864796 C21.5531068,25.8864796 10.3620706,25.8864796 15.9575887,25.8864796 Z" id="Shape" fill="#00D093"></path>
                        </g>
                    </g>
                    <g transform="translate(167.865544, 0.000000)" id="Oval">
                        <ellipse fill="#00D093" fill-rule="nonzero" cx="49.1162146" cy="49.7070918" rx="16.1648301" ry="16.1531633"></ellipse>
                        <ellipse stroke="#00D093" stroke-width="2" cx="49.1162146" cy="49.7070918" rx="35.6455229" ry="35.6197959"></ellipse>
                        <ellipse stroke="#A5A1A0" stroke-width="2" cx="49.1162146" cy="49.7070918" rx="49.1162146" ry="49.0807653"></ellipse>
                    </g>
                </g>
                <g id="Group" transform="translate(245.000000, 742.000000)">
                    <g transform="translate(99.439252, 36.300000)" id="Shape">
                        <path d="M152.47352,13.2 L0.621495327,13.2" stroke="#FFAE38" stroke-width="2"></path>
                        <g transform="translate(137.557632, 0.000000)" fill-rule="nonzero">
                            <path d="M14.0872274,1.65 C20.5093458,1.65 25.6884735,6.80625 25.6884735,13.2 C25.6884735,19.59375 20.5093458,24.75 14.0872274,24.75 C7.66510903,24.75 2.48598131,19.59375 2.48598131,13.2 C2.48598131,6.80625 7.66510903,1.65 14.0872274,1.65 Z" fill="#FFFFFF"></path>
                            <path d="M14.0872274,0 C6.8364486,0 0.828660436,5.98125 0.828660436,13.2 C0.828660436,20.41875 6.8364486,26.4 14.0872274,26.4 C21.3380062,26.4 27.3457944,20.41875 27.3457944,13.2 C27.3457944,5.98125 21.5451713,0 14.0872274,0 C6.8364486,0 21.5451713,0 14.0872274,0 Z M14.0872274,23.30625 C8.49376947,23.30625 3.93613707,18.76875 3.93613707,13.2 C3.93613707,7.63125 8.49376947,3.09375 14.0872274,3.09375 C19.6806854,3.09375 24.2383178,7.63125 24.2383178,13.2 C24.2383178,18.76875 19.6806854,23.30625 14.0872274,23.30625 C8.49376947,23.30625 19.6806854,23.30625 14.0872274,23.30625 Z" fill="#FFAE38"></path>
                        </g>
                    </g>
                    <g id="Oval">
                        <ellipse fill="#FFAE38" fill-rule="nonzero" cx="49.7196262" cy="49.5" rx="16.1588785" ry="16.0875"></ellipse>
                        <ellipse stroke="#FFAE38" stroke-width="2" cx="49.7196262" cy="49.5" rx="35.6323988" ry="35.475"></ellipse>
                        <ellipse stroke="#A5A1A0" stroke-width="2" cx="49.7196262" cy="49.5" rx="49.0981308" ry="48.88125"></ellipse>
                    </g>
                </g>
                <g id="Group" transform="translate(82.000000, 187.000000)">
                    <g transform="translate(0.000000, 36.039031)">
                        <path d="M165.079254,13.6680612 L12.8091784,13.6680612" id="Shape" stroke="#FFAE38" stroke-width="2"></path>
                        <g fill-rule="nonzero">
                            <ellipse id="Oval" fill="#FFFFFF" cx="13.4323847" cy="13.6680612" rx="11.6331845" ry="11.5971429"></ellipse>
                            <path d="M13.4323847,0.414183673 C20.703125,0.414183673 26.7274527,6.41984694 26.7274527,13.6680612 C26.7274527,20.9162755 20.703125,26.9219388 13.4323847,26.9219388 C6.16164435,26.9219388 0.137316645,20.9162755 0.137316645,13.6680612 C0.137316645,6.41984694 6.16164435,0.414183673 13.4323847,0.414183673 C20.703125,0.414183673 6.16164435,0.414183673 13.4323847,0.414183673 Z M13.4323847,23.6084694 C19.0412415,23.6084694 23.6114211,19.052449 23.6114211,13.4609694 C23.6114211,7.8694898 19.0412415,3.31346939 13.4323847,3.31346939 C7.82352785,3.31346939 3.25334821,7.8694898 3.25334821,13.4609694 C3.25334821,19.052449 7.82352785,23.6084694 13.4323847,23.6084694 C19.0412415,23.6084694 7.82352785,23.6084694 13.4323847,23.6084694 Z" id="Shape" fill="#FFAE38"></path>
                        </g>
                    </g>
                    <g transform="translate(165.286990, 0.000000)" id="Oval">
                        <ellipse fill="#FFAE38" fill-rule="nonzero" cx="49.6487697" cy="49.7070918" rx="16.2033642" ry="16.1531633"></ellipse>
                        <ellipse stroke="#FFAE38" stroke-width="2" cx="49.6487697" cy="49.7070918" rx="35.7304953" ry="35.6197959"></ellipse>
                        <ellipse stroke="#A5A1A0" stroke-width="2" cx="49.6487697" cy="49.7070918" rx="49.2332988" ry="49.0807653"></ellipse>
                    </g>
                </g>
                <g id="Group" transform="translate(248.000000, 373.000000)">
                    <g transform="translate(99.995989, 36.300000)" id="Shape">
                        <path d="M152.914427,13.2 L0.212218902,13.2" stroke="#0086CE" stroke-width="2"></path>
                        <g transform="translate(138.331679, 0.000000)" fill-rule="nonzero">
                            <path d="M13.7494485,1.65 C20.2075228,1.65 25.4156472,6.80625 25.4156472,13.2 C25.4156472,19.59375 20.2075228,24.75 13.7494485,24.75 C7.29137421,24.75 2.08324977,19.59375 2.08324977,13.2 C2.08324977,6.80625 7.29137421,1.65 13.7494485,1.65 Z" fill="#FFFFFF"></path>
                            <path d="M13.7494485,0 C6.4580743,0 0.416649955,5.98125 0.416649955,13.2 C0.416649955,20.41875 6.4580743,26.4 13.7494485,26.4 C21.0408227,26.4 27.0822471,20.41875 27.0822471,13.2 C27.0822471,5.98125 21.2491477,0 13.7494485,0 C6.4580743,0 21.2491477,0 13.7494485,0 Z M13.7494485,23.30625 C8.12467412,23.30625 3.54152462,18.76875 3.54152462,13.2 C3.54152462,7.63125 8.12467412,3.09375 13.7494485,3.09375 C19.3742229,3.09375 23.9573724,7.63125 23.9573724,13.2 C23.9573724,18.76875 19.3742229,23.30625 13.7494485,23.30625 C8.12467412,23.30625 19.3742229,23.30625 13.7494485,23.30625 Z" fill="#0086CE"></path>
                        </g>
                    </g>
                    <g id="Oval">
                        <ellipse fill="#0086CE" fill-rule="nonzero" cx="49.5852385" cy="49.5" rx="16.2493482" ry="16.0875"></ellipse>
                        <ellipse stroke="#0086CE" stroke-width="2" cx="49.5852385" cy="49.5" rx="35.8318961" ry="35.475"></ellipse>
                        <ellipse stroke="#A5A1A0" stroke-width="2" cx="49.5852385" cy="49.5" rx="49.3730196" ry="48.88125"></ellipse>
                    </g>
                </g>
                <g id="Group" transform="translate(82.000000, 929.000000)">
                    <g transform="translate(0.000000, 36.039031)">
                        <path d="M165.149673,13.4609694 L12.8795972,13.4609694" id="Shape" stroke="#0086CE" stroke-width="2"></path>
                        <g fill-rule="nonzero">
                            <ellipse id="Oval" fill="#FFFFFF" cx="13.5028035" cy="13.6680612" rx="11.6331845" ry="11.5971429"></ellipse>
                            <path d="M13.5028035,0.414183673 C20.7735438,0.414183673 26.7978715,6.41984694 26.7978715,13.6680612 C26.7978715,20.9162755 20.7735438,26.9219388 13.5028035,26.9219388 C6.23206314,26.9219388 0.207735438,20.9162755 0.207735438,13.6680612 C0.207735438,6.41984694 6.23206314,0.414183673 13.5028035,0.414183673 C20.7735438,0.414183673 6.23206314,0.414183673 13.5028035,0.414183673 Z M13.5028035,23.6084694 C19.1116603,23.6084694 23.6818399,19.052449 23.6818399,13.4609694 C23.6818399,7.8694898 19.1116603,3.31346939 13.5028035,3.31346939 C7.89394664,3.31346939 3.32376701,7.8694898 3.32376701,13.4609694 C3.32376701,19.052449 7.89394664,23.6084694 13.5028035,23.6084694 C19.1116603,23.6084694 7.89394664,23.6084694 13.5028035,23.6084694 Z" id="Shape" fill="#0086CE"></path>
                        </g>
                    </g>
                    <g transform="translate(165.353526, 0.000000)" id="Oval">
                        <ellipse fill="#0086CE" fill-rule="nonzero" cx="49.6526526" cy="49.5" rx="16.2033642" ry="16.1531633"></ellipse>
                        <ellipse stroke="#0086CE" stroke-width="2" cx="49.6526526" cy="49.5" rx="35.7304953" ry="35.6197959"></ellipse>
                        <ellipse stroke="#A5A1A0" stroke-width="2" cx="49.6526526" cy="49.5" rx="49.2332988" ry="49.0807653"></ellipse>
                    </g>
                </g>
                <text id="2010" fill="#4a4a4a" font-family="Helvetica" font-size="40.2276" font-weight="normal">
                    <tspan x="374" y="249">2010</tspan>
                </text>
                <text id="2008" fill="#4a4a4a" font-family="Helvetica" font-size="40.2276" font-weight="normal">
                    <tspan x="374" y="623">2008</tspan>
                </text>
                <text id="2006" fill="#4a4a4a" font-family="Helvetica" font-size="40.2276" font-weight="normal">
                    <tspan x="374" y="985">2006</tspan>
                </text>
                <text id="2011" fill="#4a4a4a" font-family="Helvetica" font-size="40.2276" font-weight="normal">
                    <tspan x="126" y="57">2011</tspan>
                </text>
                <text id="2009" fill="#4a4a4a" font-family="Helvetica" font-size="40.2276" font-weight="normal">
                    <tspan x="124" y="431">2009</tspan>
                </text>
                <text id="2007" fill="#4a4a4a" font-family="Helvetica" font-size="40.2276" font-weight="normal">
                    <tspan x="124" y="800">2007</tspan>
                </text>
                <text id="2005" fill="#4a4a4a" font-family="Helvetica" font-size="40.2276" font-weight="normal">
                    <tspan x="124" y="1169">2005</tspan>
                </text>
                <text id="1st-Quarter" fill="#4a4a4a" font-family="Helvetica" font-size="24" font-weight="normal">
                    <tspan x="438" y="24">1st Quarter</tspan>
                </text>
                <text id="October-|-November" fill="#4a4a4a" font-family="Helvetica" font-size="24" font-weight="normal">
                    <tspan x="0" y="957">October | November</tspan>
                </text>
                <g id="Group" transform="translate(441.000000, 749.000000)" fill="#4a4a4a" font-family="Helvetica" font-size="24" font-weight="normal">
                    <text id="May-|-June">
                        <tspan x="1" y="23">May | June</tspan>
                    </text>
                    <text id="November">
                        <tspan x="0" y="83">November</tspan>
                    </text>
                </g>
                <text id="Spring-|-Summer" fill="#4a4a4a" font-family="Helvetica" font-size="24" font-weight="normal">
                    <tspan x="419" y="1136">Spring | Summer</tspan>
                </text>
                <text id="April" fill="#4a4a4a" font-family="Helvetica" font-size="24" font-weight="normal">
                    <tspan x="70" y="210">April</tspan>
                </text>
                <g id="Group" transform="translate(21.000000, 565.000000)" fill="#4a4a4a" font-family="Helvetica" font-size="24" font-weight="normal">
                    <text id="March-|-May">
                        <tspan x="0" y="23">March | May</tspan>
                    </text>
                    <text id="June-|-December">
                        <tspan x="15" y="83">June | December</tspan>
                    </text>
                </g>
                <text id="October-|-November" fill="#4a4a4a" font-family="Helvetica" font-size="24" font-weight="normal">
                    <tspan x="406" y="401">October | November</tspan>
                </text>
            </g>
        </g>
    </g>
</svg>